<svg width="610" height="1184" viewBox="0 0 610 1184" fill="none" xmlns="http://www.w3.org/2000/svg">
<path d="M333 716.576H-207V717.026H333V716.576ZM333 682.629H-207V682.178H333V682.629ZM333 648.231H-207V647.781H333V648.231ZM333 613.833H-207V613.383H333V613.833ZM333 579.436H-207V578.985H333V579.436ZM333 545.038H-207V544.588H333V545.038ZM333 510.64H-207V510.19H333V510.64ZM314.363 734H313.912V476H314.363V734ZM275.771 734H275.321V476H275.771V734ZM237.145 734H236.695V476H237.145V734ZM198.554 734H198.104V476H198.554V734ZM159.963 734H159.513V476H159.963V734ZM121.337 734H120.887V476H121.337V734ZM82.746 734H82.2956V476H82.746V734ZM44.1547 734H43.7044V476H44.1547V734ZM5.52887 734H5.07852V476H5.52887V734ZM-33.0624 734H-33.5127V476H-33.0624V734ZM-71.6536 734H-72.1039V476H-71.6536V734ZM-110.279 734H-110.73V476H-110.279V734ZM-148.871 734H-149.321V476H-148.871V734ZM-187.462 734H-187.912V476H-187.462V734Z" fill="url(#paint0_linear_1_280)"/>
<path d="M333 716.576H-207V717.026H333V716.576ZM333 682.629H-207V682.178H333V682.629ZM333 648.231H-207V647.781H333V648.231ZM333 613.833H-207V613.383H333V613.833ZM333 579.436H-207V578.985H333V579.436ZM333 545.038H-207V544.588H333V545.038ZM333 510.64H-207V510.19H333V510.64ZM314.363 734H313.912V476H314.363V734ZM275.771 734H275.321V476H275.771V734ZM237.145 734H236.695V476H237.145V734ZM198.554 734H198.104V476H198.554V734ZM159.963 734H159.513V476H159.963V734ZM121.337 734H120.887V476H121.337V734ZM82.746 734H82.2956V476H82.746V734ZM44.1547 734H43.7044V476H44.1547V734ZM5.52887 734H5.07852V476H5.52887V734ZM-33.0624 734H-33.5127V476H-33.0624V734ZM-71.6536 734H-72.1039V476H-71.6536V734ZM-110.279 734H-110.73V476H-110.279V734ZM-148.871 734H-149.321V476H-148.871V734ZM-187.462 734H-187.912V476H-187.462V734Z" fill="url(#paint1_linear_1_280)"/>
<g opacity="0.8" filter="url(#filter0_f_1_280)">
<circle cx="18" cy="592" r="146" fill="#665AFC"/>
</g>
<defs>
<filter id="filter0_f_1_280" x="-573.7" y="0.299988" width="1183.4" height="1183.4" filterUnits="userSpaceOnUse" color-interpolation-filters="sRGB">
<feFlood flood-opacity="0" result="BackgroundImageFix"/>
<feBlend mode="normal" in="SourceGraphic" in2="BackgroundImageFix" result="shape"/>
<feGaussianBlur stdDeviation="222.85" result="effect1_foregroundBlur_1_280"/>
</filter>
<linearGradient id="paint0_linear_1_280" x1="-215.519" y1="734" x2="183.758" y2="437.289" gradientUnits="userSpaceOnUse">
<stop stop-color="#9061F9"/>
<stop offset="1" stop-color="#9061F9" stop-opacity="0"/>
</linearGradient>
<linearGradient id="paint1_linear_1_280" x1="63" y1="734" x2="63" y2="476" gradientUnits="userSpaceOnUse">
<stop stop-color="#060027"/>
<stop offset="0.48" stop-color="#060027" stop-opacity="0"/>
<stop offset="1" stop-color="#060027"/>
</linearGradient>
</defs>
</svg>
