<svg width="24" height="24" viewBox="0 0 24 24" fill="none" xmlns="http://www.w3.org/2000/svg">
<path d="M20.5873 0.5C21.265 0.5 21.9151 0.769245 22.3943 1.2485C22.8736 1.72776 23.1428 2.37778 23.1428 3.05556V20.9444C23.1428 21.6222 22.8736 22.2722 22.3943 22.7515C21.9151 23.2308 21.265 23.5 20.5873 23.5H2.69838C2.0206 23.5 1.37059 23.2308 0.891327 22.7515C0.412067 22.2722 0.142822 21.6222 0.142822 20.9444V3.05556C0.142822 2.37778 0.412067 1.72776 0.891327 1.2485C1.37059 0.769245 2.0206 0.5 2.69838 0.5H20.5873ZM19.9484 20.3056V13.5333C19.9484 12.4286 19.5095 11.369 18.7283 10.5878C17.9471 9.80665 16.8876 9.36778 15.7828 9.36778C14.6967 9.36778 13.4317 10.0322 12.8184 11.0289V9.61056H9.25338V20.3056H12.8184V14.0061C12.8184 13.0222 13.6106 12.2172 14.5945 12.2172C15.0689 12.2172 15.5239 12.4057 15.8594 12.7412C16.1949 13.0767 16.3834 13.5317 16.3834 14.0061V20.3056H19.9484ZM5.1006 7.60444C5.66993 7.60444 6.21595 7.37828 6.61852 6.9757C7.0211 6.57312 7.24727 6.02711 7.24727 5.45778C7.24727 4.26944 6.28893 3.29833 5.1006 3.29833C4.52788 3.29833 3.97862 3.52585 3.57364 3.93082C3.16867 4.33579 2.94116 4.88506 2.94116 5.45778C2.94116 6.64611 3.91227 7.60444 5.1006 7.60444ZM6.87671 20.3056V9.61056H3.33727V20.3056H6.87671Z" fill="#D1D5DB"/>
</svg>
